<?xml version="1.0" standalone="no"?><!DOCTYPE svg PUBLIC "-//W3C//DTD SVG 1.1//EN" "http://www.w3.org/Graphics/SVG/1.1/DTD/svg11.dtd"><svg t="1743988501434" class="icon" viewBox="0 0 1024 1024" version="1.1" xmlns="http://www.w3.org/2000/svg" p-id="7178" xmlns:xlink="http://www.w3.org/1999/xlink" width="200" height="200"><path d="M483.5 473.7c-88.3-2.2-159.4-72.7-159.4-159.1 0-87.7 73.4-159.1 163.6-159.1 90.3 0 163.7 71.4 163.7 159.1 0 87.7-73.4 159-163.7 159h-4.2z" fill="#CEE8FF" p-id="7179"></path><path d="M487.7 176.9c38.2 0 74.1 14.5 101.1 40.7 26.6 26 41.3 60.4 41.3 97s-14.7 71-41.3 97c-26.9 26.3-62.8 40.7-101 40.7h-4c-76.7-2-138.4-63-138.4-137.8 0-36.6 14.7-71 41.3-97 26.9-26.1 62.8-40.6 101-40.6m0-42.6c-102.2 0-185 80.8-185 180.4 0 99.6 82.9 180.5 185 180.5v-0.1c102.2 0 185-80.7 185-180.4s-82.8-180.4-185-180.4zM864.4 751.7c-13-5.1-22.4-17.8-22.4-32.6s9.3-27.5 22.4-32.6c5.1-2 8.4-7.2 7-12.5-4.1-15.4-10.2-30-18.1-43.5-2.6-4.5-8.4-6.2-13.2-4-13 5.9-28.7 3.6-39.4-7-10.6-10.6-12.9-26.4-7-39.4 2.2-4.8 0.5-10.6-4-13.2-13.5-7.9-28.1-14-43.5-18.1-5.3-1.4-10.5 1.9-12.5 7-5.1 13-17.8 22.3-32.6 22.3s-27.5-9.3-32.6-22.3c-2-5.1-7.2-8.4-12.5-7-15.4 4.1-30 10.2-43.5 18.1-4.5 2.6-6.2 8.4-4 13.2 5.9 13 3.6 28.7-7 39.4-10.6 10.6-26.4 12.9-39.4 7-4.8-2.2-10.6-0.5-13.2 4-7.9 13.5-14 28.1-18.1 43.5-1.4 5.3 1.9 10.5 7 12.5 13 5.1 22.4 17.8 22.4 32.6s-9.3 27.5-22.4 32.6c-5.1 2-8.4 7.2-7 12.5 4.1 15.4 10.2 30 18.1 43.5 2.6 4.5 8.4 6.2 13.2 4 13-5.9 28.7-3.6 39.4 7 10.6 10.6 12.9 26.4 7 39.4-2.2 4.8-0.5 10.6 4 13.2 13.5 7.9 28.1 14 43.5 18.1 5.3 1.4 10.5-1.9 12.5-7 5.1-13 17.8-22.4 32.6-22.4s27.5 9.3 32.6 22.4c2 5.1 7.2 8.4 12.5 7 15.4-4.1 30-10.2 43.5-18.1 4.5-2.6 6.2-8.4 4-13.2-5.9-13-3.6-28.7 7-39.4 10.6-10.6 26.4-12.9 39.4-7 4.8 2.2 10.6 0.5 13.2-4 7.9-13.5 14-28.1 18.1-43.5 1.4-5.3-1.9-10.5-7-12.5z m-163.3 52.7c-47.1 0-85.3-38.2-85.3-85.3 0-47.1 38.2-85.3 85.3-85.3 47.1 0 85.3 38.2 85.3 85.3 0 47.1-38.2 85.3-85.3 85.3z" fill="#298DF7" p-id="7180"></path><path d="M251.8 868.4c-43.1 0-78.2-30.7-78.2-68.5 0-2.9 0.2-5.5 0.6-8.2l14-101c4.9-35 20.9-66.6 46.3-91.2 25.5-24.6 58.4-40.4 95.3-45.8l186.8 0.3c-32.9 51.4-50.2 110.8-50.2 171.9 0 50 11.3 97.9 33.5 142.5H251.8z m265-314.6z" fill="#CEE8FF" p-id="7181"></path><path d="M331.4 575.1l148.8 0.2c-23.1 46.7-35.1 98.1-35.1 150.6 0 42 7.5 82.6 22.2 121.1H251.8c-16 0-30.9-5.4-41.8-15.3-9.7-8.8-15.1-20.1-15.1-31.8 0-1.8 0.1-3.5 0.3-5.2v-0.2l14-101c4.2-30.3 18-57.5 40-78.8 22-21 50.3-34.7 82.2-39.6m-3.1-42.7c-85.9 11.8-150.1 74.5-161.3 155.4l-14 101c-0.5 3.7-0.8 7.4-0.8 11.2 0 49.6 44.5 89.8 99.5 89.8h248.5c15.6 0 26.1-16.3 19.1-30.3-20.2-40.2-31.6-85.5-31.6-133.5 0-59.1 17.2-114.1 46.9-160.4 9.1-14.2-0.7-32.8-17.6-32.8l-188.7-0.4z" fill="#298DF7" p-id="7182"></path></svg>